<svg class="logo-icon" viewBox="0 0 48 48" xmlns="http://www.w3.org/2000/svg">
    <g transform="scale(1, -1) translate(0, -48)">
        <defs>
            <linearGradient id="synapseGradient" x1="0%" y1="0%" x2="100%" y2="100%">
                <stop offset="0%" style="stop-color:#10b981;stop-opacity:1" />
                <stop offset="100%" style="stop-color:#059669;stop-opacity:1" />
            </linearGradient>
        </defs>
        <!-- Neural connection nodes -->
        <circle cx="12" cy="12" r="3" fill="url(#synapseGradient)"/>
        <circle cx="24" cy="8" r="2.5" fill="url(#synapseGradient)"/>
        <circle cx="36" cy="12" r="3" fill="url(#synapseGradient)"/>
        <circle cx="12" cy="24" r="2.5" fill="url(#synapseGradient)"/>
        <circle cx="24" cy="24" r="4" fill="url(#synapseGradient)"/>
        <circle cx="36" cy="24" r="2.5" fill="url(#synapseGradient)"/>
        <circle cx="12" cy="36" r="3" fill="url(#synapseGradient)"/>
        <circle cx="24" cy="40" r="2.5" fill="url(#synapseGradient)"/>
        <circle cx="36" cy="36" r="3" fill="url(#synapseGradient)"/>
        <!-- Neural connections forming 'S' shape -->
        <path d="M 12 12 Q 18 8 24 8 Q 30 8 36 12" stroke="url(#synapseGradient)" stroke-width="2" fill="none" stroke-linecap="round"/>
        <path d="M 36 12 Q 30 18 24 24 Q 18 30 12 36" stroke="url(#synapseGradient)" stroke-width="2" fill="none" stroke-linecap="round"/>
        <path d="M 12 36 Q 18 40 24 40 Q 30 40 36 36" stroke="url(#synapseGradient)" stroke-width="2" fill="none" stroke-linecap="round"/>
    </g>
</svg>

